<?xml version="1.0" encoding="utf-8"?>
<!-- Generator: Adobe Illustrator 27.7.0, SVG Export Plug-In . SVG Version: 6.00 Build 0)  -->
<svg version="1.1" id="_圖層_1" xmlns="http://www.w3.org/2000/svg" xmlns:xlink="http://www.w3.org/1999/xlink" x="0px" y="0px"
	 viewBox="0 0 64 64" style="enable-background:new 0 0 64 64;" xml:space="preserve">
<style type="text/css">
	.st0{fill:#040000;}
</style>
<g id="_图层_2">
	<g id="Discord_Logos">
		<g id="Discord_Logo_-_Large_-_White">
			<path class="st0" d="M54.2,11.8C50,9.9,45.6,8.5,41,7.7c-0.6,1.1-1.2,2.3-1.7,3.4c-4.9-0.7-9.8-0.7-14.6,0
				C24.2,10,23.6,8.9,23,7.7c-4.6,0.8-9,2.1-13.2,4.1C1.4,24.2-0.9,36.2,0.3,48.1l0,0c4.9,3.6,10.4,6.4,16.2,8.1
				c1.3-1.8,2.5-3.6,3.5-5.6c-1.9-0.7-3.7-1.6-5.5-2.6c0.5-0.3,0.9-0.7,1.3-1c10.3,4.8,22.1,4.8,32.4,0c0.4,0.4,0.9,0.7,1.3,1
				c-1.7,1-3.6,1.9-5.5,2.6c1,2,2.2,3.8,3.5,5.6c5.8-1.8,11.3-4.5,16.2-8.1l0,0C65.1,34.4,61.5,22.4,54.2,11.8L54.2,11.8z
				 M21.4,40.8c-3.2,0-5.8-2.9-5.8-6.4s2.5-6.4,5.8-6.4s5.8,2.9,5.8,6.4S24.6,40.8,21.4,40.8z M42.6,40.8c-3.2,0-5.8-2.9-5.8-6.4
				s2.5-6.4,5.8-6.4s5.8,2.9,5.8,6.4S45.8,40.8,42.6,40.8z"/>
		</g>
	</g>
</g>
</svg>
